<svg width="24" height="24" viewBox="0 0 24 24" fill="none" xmlns="http://www.w3.org/2000/svg">
<g clip-path="url(#clip0_869_1835)">
<circle cx="12" cy="12" r="12" fill="#144943"/>
<path d="M8.99219 9.07812C8.99219 8.55729 9.23958 8.10156 9.73438 7.71094C10.2292 7.32031 10.9948 7.125 12.0312 7.125C12.724 7.125 13.3099 7.19792 13.7891 7.34375C14.2734 7.48958 14.6198 7.67708 14.8281 7.90625C15.0417 8.13542 15.1875 8.34635 15.2656 8.53906C15.349 8.72656 15.3906 8.91667 15.3906 9.10938C15.3906 9.76042 15.0391 10.2786 14.3359 10.6641C13.1745 11.3047 12.5938 12.1302 12.5938 13.1406V13.4141C12.5938 13.6797 12.5469 13.8542 12.4531 13.9375C12.3646 14.0156 12.1979 14.0547 11.9531 14.0547C11.6562 14.0547 11.474 14.0026 11.4062 13.8984C11.3438 13.7891 11.3125 13.5651 11.3125 13.2266C11.3125 13.0339 11.3177 12.875 11.3281 12.75C11.3385 12.6198 11.3828 12.4193 11.4609 12.1484C11.5443 11.8724 11.6589 11.6276 11.8047 11.4141C11.9557 11.2005 12.1875 10.9531 12.5 10.6719C12.8177 10.3906 13.1953 10.1276 13.6328 9.88281C13.7734 9.8099 13.8802 9.75 13.9531 9.70312C14.026 9.65104 14.099 9.57292 14.1719 9.46875C14.25 9.35938 14.2891 9.23958 14.2891 9.10938C14.2891 8.83333 14.1016 8.59635 13.7266 8.39844C13.3568 8.20052 12.7917 8.10156 12.0312 8.10156C11.1771 8.10156 10.5859 8.28906 10.2578 8.66406C10.362 8.79427 10.4141 8.94271 10.4141 9.10938C10.4141 9.32292 10.3411 9.4974 10.1953 9.63281C10.0547 9.76302 9.89323 9.82812 9.71094 9.82812C9.51823 9.82812 9.34896 9.76302 9.20312 9.63281C9.0625 9.4974 8.99219 9.3125 8.99219 9.07812ZM11.3828 16.7734C11.2266 16.6172 11.1484 16.4271 11.1484 16.2031C11.1484 15.9792 11.2266 15.7891 11.3828 15.6328C11.5391 15.4766 11.7292 15.3984 11.9531 15.3984C12.1771 15.3984 12.3646 15.4766 12.5156 15.6328C12.6719 15.7891 12.75 15.9792 12.75 16.2031C12.75 16.4271 12.6719 16.6172 12.5156 16.7734C12.3646 16.9245 12.1771 17 11.9531 17C11.7292 17 11.5391 16.9245 11.3828 16.7734Z" fill="white"/>
</g>
<defs>
<clipPath id="clip0_869_1835">
<rect width="24" height="24" fill="white"/>
</clipPath>
</defs>
</svg>
